<svg xmlns="http://www.w3.org/2000/svg" width="900" height="350" viewBox="0 0 900 350">
  <rect width="900" height="350" fill="#ffffff"/>
  <polygon points="170.0,36.0 170.0,280.0 200.0,280.0 470.0,99.7 770.0,99.7 770.0,36.0" fill="#eef2f6" stroke="none"/>
  <polygon points="170.0,280.0 200.0,280.0 470.0,99.7 770.0,99.7 770.0,280.0" fill="#f7efee" stroke="none"/>
  <line x1="170.0" y1="36" x2="170.0" y2="280" stroke="#5b6b78" stroke-width="1.0" stroke-dasharray="4 4"/>
  <line x1="85" y1="173.91304347826087" x2="90" y2="173.91304347826087" stroke="#1f2a33" stroke-width="1.1"/>
  <text x="82" y="177.91304347826087" font-family="Libertinus Serif, Times New Roman, serif" font-size="16.675" font-weight="normal" text-anchor="end" fill="#5b6b78">0,5</text>
  <line x1="85" y1="99.65217391304347" x2="90" y2="99.65217391304347" stroke="#1f2a33" stroke-width="1.1"/>
  <text x="82" y="103.65217391304347" font-family="Libertinus Serif, Times New Roman, serif" font-size="16.675" font-weight="normal" text-anchor="end" fill="#5b6b78">0,85</text>
  <line x1="85" y1="67.82608695652172" x2="90" y2="67.82608695652172" stroke="#1f2a33" stroke-width="1.1"/>
  <text x="82" y="71.82608695652172" font-family="Libertinus Serif, Times New Roman, serif" font-size="16.675" font-weight="normal" text-anchor="end" fill="#5b6b78">1</text>
  <line x1="90" y1="280" x2="770" y2="280" stroke="#1f2a33" stroke-width="1.4"/>
  <line x1="90" y1="36" x2="90" y2="280" stroke="#1f2a33" stroke-width="1.4"/>
  <line x1="170.0" y1="280" x2="170.0" y2="285" stroke="#1f2a33" stroke-width="1.1"/>
  <text x="170.0" y="300" font-family="Libertinus Serif, Times New Roman, serif" font-size="16.675" font-weight="normal" text-anchor="middle" fill="#5b6b78">0</text>
  <line x1="270.0" y1="280" x2="270.0" y2="285" stroke="#1f2a33" stroke-width="1.1"/>
  <text x="270.0" y="300" font-family="Libertinus Serif, Times New Roman, serif" font-size="16.675" font-weight="normal" text-anchor="middle" fill="#5b6b78">0,5</text>
  <line x1="370.0" y1="280" x2="370.0" y2="285" stroke="#1f2a33" stroke-width="1.1"/>
  <text x="370.0" y="300" font-family="Libertinus Serif, Times New Roman, serif" font-size="16.675" font-weight="normal" text-anchor="middle" fill="#5b6b78">1</text>
  <line x1="470.0" y1="280" x2="470.0" y2="285" stroke="#1f2a33" stroke-width="1.1"/>
  <text x="470.0" y="300" font-family="Libertinus Serif, Times New Roman, serif" font-size="16.675" font-weight="normal" text-anchor="middle" fill="#5b6b78">1,5</text>
  <line x1="570.0" y1="280" x2="570.0" y2="285" stroke="#1f2a33" stroke-width="1.1"/>
  <text x="570.0" y="300" font-family="Libertinus Serif, Times New Roman, serif" font-size="16.675" font-weight="normal" text-anchor="middle" fill="#5b6b78">2</text>
  <line x1="670.0" y1="280" x2="670.0" y2="285" stroke="#1f2a33" stroke-width="1.1"/>
  <text x="670.0" y="300" font-family="Libertinus Serif, Times New Roman, serif" font-size="16.675" font-weight="normal" text-anchor="middle" fill="#5b6b78">2,5</text>
  <line x1="770.0" y1="280" x2="770.0" y2="285" stroke="#1f2a33" stroke-width="1.1"/>
  <text x="770.0" y="300" font-family="Libertinus Serif, Times New Roman, serif" font-size="16.675" font-weight="normal" text-anchor="middle" fill="#5b6b78">3</text>
  <text x="430.0" y="324" font-family="Libertinus Serif, Times New Roman, serif" font-size="17.4" font-weight="normal" text-anchor="middle" fill="#5b6b78" font-style="italic">χρόνος (s)</text>
  <text x="90" y="24" font-family="Libertinus Serif, Times New Roman, serif" font-size="16.675" font-weight="normal" text-anchor="middle" fill="#5b6b78" font-style="italic">U (p.u.)</text>
  <polyline points="170.00,280.00 200.00,280.00 470.00,99.65 770.00,99.65" fill="none" stroke="#1f2a33" stroke-width="2.4"/>
  <polyline points="90.00,67.83 170.00,67.83 170.00,226.96 194.00,226.96 194.00,131.48 198.00,128.37 202.00,125.42 206.00,122.61 210.00,119.94 214.00,117.40 218.00,114.98 222.00,112.68 226.00,110.49 230.00,108.41 234.00,106.43 238.00,104.55 242.00,102.76 246.00,101.06 250.00,99.43 254.00,97.89 258.00,96.43 262.00,95.03 266.00,93.71 270.00,92.44 274.00,91.24 278.00,90.10 282.00,89.01 286.00,87.98 290.00,87.00 294.00,86.06 298.00,85.17 302.00,84.33 306.00,83.52 310.00,82.76 314.00,82.03 318.00,81.34 322.00,80.68 326.00,80.05 330.00,79.45 334.00,78.89 338.00,78.35 342.00,77.83 346.00,77.35 350.00,76.88 354.00,76.44 358.00,76.02 362.00,75.62 366.00,75.24 370.00,74.88 374.00,74.53 378.00,74.21 382.00,73.90 386.00,73.60 390.00,73.32 394.00,73.05 398.00,72.80 402.00,72.55 406.00,72.32 410.00,72.10 414.00,71.90 418.00,71.70 422.00,71.51 426.00,71.33 430.00,71.16 434.00,71.00 438.00,70.84 442.00,70.69 446.00,70.55 450.00,70.42 454.00,70.29 458.00,70.17 462.00,70.06 466.00,69.95 470.00,69.85 474.00,69.75 478.00,69.65 482.00,69.57 486.00,69.48 490.00,69.40 494.00,69.32 498.00,69.25 502.00,69.18 506.00,69.11 510.00,69.05 514.00,68.99 518.00,68.94 522.00,68.88 526.00,68.83 530.00,68.78 534.00,68.73 538.00,68.69 542.00,68.65 546.00,68.61 550.00,68.57 554.00,68.53 558.00,68.50 562.00,68.47 566.00,68.43 570.00,68.41 574.00,68.38 578.00,68.35 582.00,68.32 586.00,68.30 590.00,68.28 594.00,68.25 598.00,68.23 602.00,68.21 606.00,68.20 610.00,68.18 614.00,68.16 618.00,68.14 622.00,68.13 626.00,68.11 630.00,68.10 634.00,68.09 638.00,68.07 642.00,68.06 646.00,68.05 650.00,68.04 654.00,68.03 658.00,68.02 662.00,68.01 666.00,68.00 670.00,67.99 674.00,67.98 678.00,67.98 682.00,67.97 686.00,67.96 690.00,67.96 694.00,67.95 698.00,67.94 702.00,67.94 706.00,67.93 710.00,67.93 714.00,67.92 718.00,67.92 722.00,67.91 726.00,67.91 730.00,67.90 734.00,67.90 738.00,67.90 742.00,67.89 746.00,67.89 750.00,67.89 754.00,67.88 758.00,67.88 762.00,67.88 766.00,67.88 770.00,67.87" fill="none" stroke="#8f2622" stroke-width="2.2"/>
  <text x="570.0" y="51.7913043478261" font-family="Libertinus Serif, Times New Roman, serif" font-size="17.4" font-weight="normal" text-anchor="middle" fill="#1f2a33">αδιάλειπτη λειτουργία</text>
  <text x="590.0" y="209.73913043478262" font-family="Libertinus Serif, Times New Roman, serif" font-size="16.675" font-weight="normal" text-anchor="middle" fill="#5b6b78" font-style="italic">επιτρέπεται η αποσύνδεση</text>
  <text x="162.0" y="248.17391304347825" font-family="Libertinus Serif, Times New Roman, serif" font-size="16.675" font-weight="normal" text-anchor="end" fill="#8f2622" font-style="italic">σφάλμα</text>
  <text x="210.00000000000003" y="138.90434782608693" font-family="Libertinus Serif, Times New Roman, serif" font-size="16.675" font-weight="normal" text-anchor="start" fill="#8f2622" font-style="italic">απομόνωση του σφάλματος</text>
  <text x="476.0" y="91.65217391304347" font-family="Libertinus Serif, Times New Roman, serif" font-size="16.675" font-weight="normal" text-anchor="start" fill="#1f2a33" font-style="italic">0,85 p.u. στα 1,5 s</text>
</svg>
